<svg width="88" height="88" viewBox="0 0 88 88" fill="none" xmlns="http://www.w3.org/2000/svg">
<circle cx="44" cy="44" r="44" fill="#F7CA00"/>
<path d="M35.643 47.4865C33.0128 47.4865 30.873 49.5708 30.873 52.1329C30.873 54.695 33.0128 56.7793 35.643 56.7793C38.2727 56.7793 40.4125 54.695 40.4125 52.1329C40.4121 49.5708 38.2727 47.4865 35.643 47.4865ZM35.643 54.008C34.5815 54.008 33.718 53.167 33.718 52.1329C33.718 51.0992 34.5815 50.2578 35.643 50.2578C36.704 50.2578 37.5676 51.0988 37.5676 52.1329C37.5676 53.1666 36.704 54.008 35.643 54.008Z" fill="white"/>
<path d="M62.3379 47.4865C59.7082 47.4865 57.5684 49.5708 57.5684 52.1329C57.5684 54.695 59.7078 56.7793 62.3379 56.7793C64.9676 56.7793 67.1074 54.695 67.1074 52.1329C67.1078 49.5708 64.968 47.4865 62.3379 47.4865ZM62.3379 54.008C61.2769 54.008 60.4133 53.167 60.4133 52.1329C60.4133 51.0992 61.2765 50.2578 62.3379 50.2578C63.3993 50.2578 64.2625 51.0988 64.2625 52.1329C64.2629 53.1666 63.3993 54.008 62.3379 54.008Z" fill="white"/>
<path d="M51.1247 31H31.0175C28.2727 31 26.0391 33.1758 26.0391 35.85V51.9508C26.0391 52.7161 26.676 53.3363 27.4615 53.3363C28.2471 53.3363 28.884 52.7161 28.884 51.9508V35.85C28.884 34.7041 29.841 33.7713 31.0175 33.7713H51.1251C52.3016 33.7713 53.2586 34.7041 53.2586 35.85V48.4863C53.2586 49.6322 52.3016 50.565 51.1251 50.565H42.8445C42.059 50.565 41.4221 51.1851 41.4221 51.9504C41.4221 52.7158 42.059 53.3359 42.8445 53.3359H51.1247C53.8695 53.3359 56.1031 51.1602 56.1031 48.486V35.85C56.1031 33.1758 53.8699 31 51.1247 31Z" fill="white"/>
<path d="M71.322 45.1838L67.9754 38.481C67.7373 38.0045 67.2407 37.7019 66.6964 37.7019H59.0728C58.2873 37.7019 57.6504 38.3221 57.6504 39.0874C57.6504 39.8527 58.2873 40.4729 59.0728 40.4729H65.8068L68.621 46.1093V51.9496C68.621 52.7149 69.2579 53.3351 70.0434 53.3351C70.829 53.3351 71.4659 52.7149 71.4659 51.9496V45.7902C71.4655 45.5805 71.4162 45.3727 71.322 45.1838Z" fill="white"/>
<path d="M22.6378 44.5941H16.711C16.3185 44.5941 16 44.9048 16 45.2872C16 45.6697 16.3185 45.9804 16.711 45.9804H22.6378C23.0307 45.9804 23.3488 45.6697 23.3488 45.2872C23.3488 44.9048 23.0303 44.5941 22.6378 44.5941Z" fill="white"/>
<path d="M22.638 48.1298H19.4376C19.0446 48.1298 18.7266 48.4404 18.7266 48.8229C18.7266 49.2054 19.045 49.516 19.4376 49.516H22.638C23.031 49.516 23.3491 49.2054 23.3491 48.8229C23.3491 48.4404 23.0306 48.1298 22.638 48.1298Z" fill="white"/>
<path d="M49.6015 46.2134C49.9945 46.2134 50.3126 45.9027 50.3126 45.5203V39.1109C50.3126 37.0419 49.1762 35.9932 46.9347 35.9932H39.1134C38.7204 35.9932 38.4023 36.3034 38.4023 36.6863C38.4023 37.0688 38.7208 37.3794 39.1134 37.3794H46.9347C48.5704 37.3794 48.8905 38.0142 48.8905 39.1113V45.5207C48.8905 45.9027 49.209 46.2134 49.6015 46.2134Z" fill="white"/>
</svg>
