<svg width="88" height="88" viewBox="0 0 88 88" fill="none" xmlns="http://www.w3.org/2000/svg">
<circle cx="44" cy="44" r="44" fill="#335DFF"/>
<path d="M59.8171 27C59.6672 27 59.5192 27.0097 59.3728 27.022C59.3363 27.0122 59.3005 27 59.2614 27H37.814C34.9308 27 32.5855 29.285 32.5855 32.094V53.5351H23.4357C23.1947 53.5351 23 53.7246 23 53.9597C23 56.768 25.3453 59.0536 28.2285 59.0536C28.3357 59.0536 28.4305 59.0112 28.5066 58.9491C28.5824 59.0112 28.6772 59.0536 28.7844 59.0536H50.2316C53.1148 59.0536 55.4601 56.7681 55.4601 53.9597C55.4601 53.9215 55.4473 53.8866 55.4381 53.8518C55.4473 53.8162 55.4601 53.7821 55.4601 53.7436V52.364V32.5188H64.6099C64.8507 32.5188 65.0456 32.329 65.0456 32.0944C65.0455 29.285 62.7002 27 59.8171 27ZM50.2316 58.2046C47.8292 58.2046 45.8745 56.301 45.8745 53.9597C45.8745 53.7246 45.6797 53.5351 45.4388 53.5351H33.4569V32.094C33.4569 29.7531 35.4115 27.849 37.814 27.849H56.933C55.5221 28.7621 54.5886 30.323 54.5886 32.094V52.3635V53.7431C54.5886 53.7813 54.6013 53.8162 54.6107 53.851C54.6013 53.8866 54.5886 53.9207 54.5886 53.9586C54.5886 56.3 52.634 58.2046 50.2316 58.2046Z" fill="white"/>
<path d="M50.776 49.8156H38.5763C38.3352 49.8156 38.1406 50.0055 38.1406 50.2407C38.1406 50.4757 38.3353 50.6657 38.5763 50.6657H50.776C51.0168 50.6657 51.2117 50.4757 51.2117 50.2407C51.2117 50.0055 51.0168 49.8156 50.776 49.8156Z" fill="white"/>
<path d="M50.776 45.5721H38.5763C38.3352 45.5721 38.1406 45.7622 38.1406 45.9973C38.1406 46.2323 38.3353 46.4223 38.5763 46.4223H50.776C51.0168 46.4223 51.2117 46.2323 51.2117 45.9973C51.2117 45.7622 51.0168 45.5721 50.776 45.5721Z" fill="white"/>
<path d="M50.776 41.3248H38.5763C38.3352 41.3248 38.1406 41.5148 38.1406 41.7499C38.1406 41.9849 38.3353 42.175 38.5763 42.175H50.776C51.0168 42.175 51.2117 41.9849 51.2117 41.7499C51.2117 41.5148 51.0168 41.3248 50.776 41.3248Z" fill="white"/>
<path d="M50.776 37.0814H38.5763C38.3352 37.0814 38.1406 37.2713 38.1406 37.5065C38.1406 37.7416 38.3353 37.9317 38.5763 37.9317H50.776C51.0168 37.9317 51.2117 37.7416 51.2117 37.5065C51.2117 37.2712 51.0168 37.0814 50.776 37.0814Z" fill="white"/>
<path d="M50.776 32.838H38.5763C38.3352 32.838 38.1406 33.028 38.1406 33.2631C38.1406 33.4981 38.3353 33.6882 38.5763 33.6882H50.776C51.0168 33.6882 51.2117 33.498 51.2117 33.2631C51.2117 33.028 51.0168 32.838 50.776 32.838Z" fill="white"/>
</svg>
