<svg width="88" height="88" viewBox="0 0 88 88" fill="none" xmlns="http://www.w3.org/2000/svg">
<circle cx="44" cy="44" r="44" fill="#0BD28E"/>
<path d="M44.512 25C33.756 25 25 33.5295 25 44.0146C25 54.4957 33.756 63.0259 44.512 63.0259C55.2708 63.0259 64.0241 54.4957 64.0241 44.0146C64.0239 33.5295 55.2706 25 44.512 25ZM44.512 61.1939C34.7905 61.1939 26.8799 53.4878 26.8799 44.014C26.8799 34.5402 34.7903 26.8313 44.512 26.8313C54.2337 26.8313 62.1441 34.5401 62.1441 44.014C62.1441 53.4879 54.2335 61.1939 44.512 61.1939Z" fill="white"/>
<path d="M45.4472 42.6788C42.8592 41.6081 41.9526 40.8564 41.9526 39.3801C41.9526 38.195 42.6228 36.861 44.9117 36.861C46.8134 36.861 48.0295 37.5297 48.654 37.875L49.3957 35.9644C48.5038 35.4734 47.2885 35.0077 45.5362 34.9536V32.1396H43.6633V35.0356C40.9583 35.4732 39.2087 37.2951 39.2087 39.6965C39.2087 42.2157 41.0816 43.5746 44.1082 44.7343C46.3095 45.6027 47.2785 46.5881 47.275 48.1788C47.2785 49.8324 46.0393 51.0174 43.9327 51.0174C42.2675 51.0174 40.7203 50.4402 39.683 49.7756L38.9707 51.7116C40.0079 52.4344 41.7636 52.9568 43.4835 52.9884V55.8811H45.3564V52.8714C48.4152 52.4085 50.051 50.264 50.051 47.9506C50.0518 45.3753 48.5067 43.8981 45.4472 42.6788Z" fill="white"/>
</svg>
